HIERARCHY
ROOT reference
{
  OFFSET 0 0 0
  CHANNELS 6 Xposition Yposition Zposition Zrotation Xrotation Yrotation
  JOINT Hips
  {
    OFFSET 19.8941 91.4584 12.6699
    CHANNELS 3 Zrotation Xrotation Yrotation
    JOINT RightUpLeg
    {
      OFFSET -9.21136 -1.54315 -0.00338228
      CHANNELS 3 Zrotation Xrotation Yrotation
      JOINT RightLeg
      {
        OFFSET 0.100199 -41.8913 0.117885
        CHANNELS 3 Zrotation Xrotation Yrotation
        JOINT RightFoot
        {
          OFFSET -0.0312538 -39.9042 0.200326
          CHANNELS 3 Zrotation Xrotation Yrotation
          End Site
          {
            OFFSET 0 -7.69 17.5
          }
        }
      }
    }
    JOINT LeftUpLeg
    {
      OFFSET 9.2904 -1.6473 0.00344049
      CHANNELS 3 Zrotation Xrotation Yrotation
      JOINT LeftLeg
      {
        OFFSET 0.15381 -41.8817 -0.0541105
        CHANNELS 3 Zrotation Xrotation Yrotation
        JOINT LeftFoot
        {
          OFFSET 0.872932 -43.9846 -0.139608
          CHANNELS 3 Zrotation Xrotation Yrotation
          End Site
          {
            OFFSET 0 -7.69 17.5
          }
        }
      }
    }
    JOINT Spine
    {
      OFFSET 0.0768477 14.3139 0.027738
      CHANNELS 3 Zrotation Xrotation Yrotation
      JOINT Spine1
      {
        OFFSET -0.0133682 9.71866 0.00713354
        CHANNELS 3 Zrotation Xrotation Yrotation
        JOINT Spine2
        {
          OFFSET -0.0175262 10.1212 -0.00524987
          CHANNELS 3 Zrotation Xrotation Yrotation
          JOINT Spine3
          {
            OFFSET -0.00348171 9.71796 0.0104149
            CHANNELS 3 Zrotation Xrotation Yrotation
            JOINT Neck
            {
              OFFSET -0.0845439 10.3822 0.044921
              CHANNELS 3 Zrotation Xrotation Yrotation
              JOINT Head
              {
                OFFSET -0.0310878 9.44025 0.0694291
                CHANNELS 3 Zrotation Xrotation Yrotation
                End Site
                {
                  OFFSET 0 15.95 0
                }
              }
            }
            JOINT RightShoulder
            {
              OFFSET -3.20882 6.90619 -0.0326675
              CHANNELS 3 Zrotation Xrotation Yrotation
              JOINT RightArm
              {
                OFFSET -12.8514 -0.0142271 -0.0483735
                CHANNELS 3 Zrotation Xrotation Yrotation
                JOINT RightForeArm
                {
                  OFFSET -26.4475 -0.0994884 -0.035967
                  CHANNELS 3 Zrotation Xrotation Yrotation
                  JOINT RightHand
                  {
                    OFFSET -25.9226 -0.102631 -0.136889
                    CHANNELS 3 Zrotation Xrotation Yrotation
                    JOINT RightHandThumb1
                    {
                      OFFSET -2.48905 0.190105 3.12053
                      CHANNELS 3 Zrotation Xrotation Yrotation
                      JOINT RightHandThumb2
                      {
                        OFFSET -3.68274 0 0
                        CHANNELS 3 Zrotation Xrotation Yrotation
                        JOINT RightHandThumb3
                        {
                          OFFSET -2.55832 0 0
                          CHANNELS 3 Zrotation Xrotation Yrotation
                          End Site
                          {
                            OFFSET -2.194 0 0
                          }
                        }
                      }
                    }
                    JOINT RightInHandIndex
                    {
                      OFFSET -3.22368 0.508421 1.97842
                      CHANNELS 3 Zrotation Xrotation Yrotation
                      JOINT RightHandIndex1
                      {
                        OFFSET -5.21684 -0.091368 0.999158
                        CHANNELS 3 Zrotation Xrotation Yrotation
                        JOINT RightHandIndex2
                        {
                          OFFSET -3.61937 0 0
                          CHANNELS 3 Zrotation Xrotation Yrotation
                          JOINT RightHandIndex3
                          {
                            OFFSET -2.0521 0 0
                            CHANNELS 3 Zrotation Xrotation Yrotation
                            End Site
                            {
                              OFFSET -1.805 0 0
                            }
                          }
                        }
                      }
                    }
                    JOINT RightInHandMiddle
                    {
                      OFFSET -3.38211 0.517263 0.756737
                      CHANNELS 3 Zrotation Xrotation Yrotation
                      JOINT RightHandMiddle1
                      {
                        OFFSET -5.17411 -0.084 0.313895
                        CHANNELS 3 Zrotation Xrotation Yrotation
                        JOINT RightHandMiddle2
                        {
                          OFFSET -3.94947 0 0
                          CHANNELS 3 Zrotation Xrotation Yrotation
                          JOINT RightHandMiddle3
                          {
                            OFFSET -2.47579 0 0
                            CHANNELS 3 Zrotation Xrotation Yrotation
                            End Site
                            {
                              OFFSET -1.975 0 0
                            }
                          }
                        }
                      }
                    }
                    JOINT RightInHandRing
                    {
                      OFFSET -3.36516 0.537895 -0.128947
                      CHANNELS 3 Zrotation Xrotation Yrotation
                      JOINT RightHandRing1
                      {
                        OFFSET -4.63474 -0.022105 -0.478947
                        CHANNELS 3 Zrotation Xrotation Yrotation
                        JOINT RightHandRing2
                        {
                          OFFSET -3.44238 0 0
                          CHANNELS 3 Zrotation Xrotation Yrotation
                          JOINT RightHandRing3
                          {
                            OFFSET -2.3881 0 0
                            CHANNELS 3 Zrotation Xrotation Yrotation
                            End Site
                            {
                              OFFSET -1.857 0 0
                            }
                          }
                        }
                      }
                    }
                    JOINT RightInHandPinky
                    {
                      OFFSET -3.16105 0.469368 -1.20179
                      CHANNELS 3 Zrotation Xrotation Yrotation
                      JOINT RightHandPinky1
                      {
                        OFFSET -4.14105 -0.022105 -1.09053
                        CHANNELS 3 Zrotation Xrotation Yrotation
                        JOINT RightHandPinky2
                        {
                          OFFSET -2.75653 0 0
                          CHANNELS 3 Zrotation Xrotation Yrotation
                          JOINT RightHandPinky3
                          {
                            OFFSET -1.74189 0 0
                            CHANNELS 3 Zrotation Xrotation Yrotation
                            End Site
                            {
                              OFFSET -1.645 0 0
                            }
                          }
                        }
                      }
                    }
                  }
                }
              }
            }
            JOINT LeftShoulder
            {
              OFFSET 3.19355 6.9059 0.0487761
              CHANNELS 3 Zrotation Xrotation Yrotation
              JOINT LeftArm
              {
                OFFSET 12.7349 -0.00433124 -0.0458964
                CHANNELS 3 Zrotation Xrotation Yrotation
                JOINT LeftForeArm
                {
                  OFFSET 26.4064 -0.194468 0.00909971
                  CHANNELS 3 Zrotation Xrotation Yrotation
                  JOINT LeftHand
                  {
                    OFFSET 25.9027 0.0515579 -0.250056
                    CHANNELS 3 Zrotation Xrotation Yrotation
                    JOINT LeftHandThumb1
                    {
                      OFFSET 2.48905 0.190105 3.12053
                      CHANNELS 3 Zrotation Xrotation Yrotation
                      JOINT LeftHandThumb2
                      {
                        OFFSET 3.68274 0 0
                        CHANNELS 3 Zrotation Xrotation Yrotation
                        JOINT LeftHandThumb3
                        {
                          OFFSET 2.55832 0 0
                          CHANNELS 3 Zrotation Xrotation Yrotation
                          End Site
                          {
                            OFFSET 2.194 0 0
                          }
                        }
                      }
                    }
                    JOINT LeftInHandIndex
                    {
                      OFFSET 3.22368 0.508421 1.97842
                      CHANNELS 3 Zrotation Xrotation Yrotation
                      JOINT LeftHandIndex1
                      {
                        OFFSET 5.21684 -0.091368 0.999158
                        CHANNELS 3 Zrotation Xrotation Yrotation
                        JOINT LeftHandIndex2
                        {
                          OFFSET 3.61937 0 0
                          CHANNELS 3 Zrotation Xrotation Yrotation
                          JOINT LeftHandIndex3
                          {
                            OFFSET 2.0521 0 0
                            CHANNELS 3 Zrotation Xrotation Yrotation
                            End Site
                            {
                              OFFSET 1.805 0 0
                            }
                          }
                        }
                      }
                    }
                    JOINT LeftInHandMiddle
                    {
                      OFFSET 3.38211 0.517263 0.756737
                      CHANNELS 3 Zrotation Xrotation Yrotation
                      JOINT LeftHandMiddle1
                      {
                        OFFSET 5.17411 -0.084 0.313895
                        CHANNELS 3 Zrotation Xrotation Yrotation
                        JOINT LeftHandMiddle2
                        {
                          OFFSET 3.94947 0 0
                          CHANNELS 3 Zrotation Xrotation Yrotation
                          JOINT LeftHandMiddle3
                          {
                            OFFSET 2.47579 0 0
                            CHANNELS 3 Zrotation Xrotation Yrotation
                            End Site
                            {
                              OFFSET 1.975 0 0
                            }
                          }
                        }
                      }
                    }
                    JOINT LeftInHandRing
                    {
                      OFFSET 3.36516 0.537895 -0.128947
                      CHANNELS 3 Zrotation Xrotation Yrotation
                      JOINT LeftHandRing1
                      {
                        OFFSET 4.63474 -0.022105 -0.478947
                        CHANNELS 3 Zrotation Xrotation Yrotation
                        JOINT LeftHandRing2
                        {
                          OFFSET 3.44238 0 0
                          CHANNELS 3 Zrotation Xrotation Yrotation
                          JOINT LeftHandRing3
                          {
                            OFFSET 2.3881 0 0
                            CHANNELS 3 Zrotation Xrotation Yrotation
                            End Site
                            {
                              OFFSET 1.857 0 0
                            }
                          }
                        }
                      }
                    }
                    JOINT LeftInHandPinky
                    {
                      OFFSET 3.16105 0.469368 -1.20179
                      CHANNELS 3 Zrotation Xrotation Yrotation
                      JOINT LeftHandPinky1
                      {
                        OFFSET 4.14105 -0.022105 -1.09053
                        CHANNELS 3 Zrotation Xrotation Yrotation
                        JOINT LeftHandPinky2
                        {
                          OFFSET 2.75653 0 0
                          CHANNELS 3 Zrotation Xrotation Yrotation
                          JOINT LeftHandPinky3
                          {
                            OFFSET 1.74189 0 0
                            CHANNELS 3 Zrotation Xrotation Yrotation
                            End Site
                            {
                              OFFSET 1.645 0 0
                            }
                          }
                        }
                      }
                    }
                  }
                }
              }
            }
          }
        }
      }
    }
  }
}
MOTION
Frames: 2
Frame Time: 0.00416667
6.000000000000000000e+02 0.000000000000000000e+00 0.000000000000000000e+00 0.000000000000000000e+00 0.000000000000000000e+00 0.000000000000000000e+00 -2.912725969819737193e-01 -7.881856524657674529e-04 1.601910196651876173e-01 -7.212098056056487350e-02 2.918631029077622951e-01 1.513449640691611198e-01 -3.630115287817473058e-02 8.503728050188714971e-02 -4.655103742931877842e-02 -1.038548346426363261e-01 -9.969312200237528954e-02 -2.028095911686804420e-01 -2.122594629947303912e-01 2.858240188605429277e-01 2.090473574675668494e-02 -5.432392776290675962e-02 -1.505309568090333061e-01 -1.872502461864873902e-01 -6.958374181636105271e-02 2.206679163118045045e-02 -1.208328146689177651e-01 -3.835190312268468155e-02 -7.991840898039235044e-03 3.277405703019755645e-01 7.010345842473476689e-04 -1.187397525700569813e-02 9.766856583590004248e-02 -5.152267455294620019e-03 -5.471037616752609523e-02 1.851379091715681935e-01 1.556331529859423905e-03 6.688242049952632801e-03 -4.980958935343374194e-02 2.981603869947258966e-03 6.027142683408379456e-03 -5.004909443508841205e-02 1.154251547256207877e-01 -4.949408057749329903e-02 -8.452390836616840986e-01 1.026934756088198286e+00 7.355098661413710381e-01 1.945385443867934994e+00 -6.489137228870138774e-01 -2.102155196345877108e+00 -7.617233806572512034e-01 -1.494667157199799412e+01 -1.899570233699100719e+00 7.085279376299106957e+01 -1.148206591986408398e+00 -5.746119850703421683e-01 -1.593382151874035202e+00 0.000000000000000000e+00 0.000000000000000000e+00 0.000000000000000000e+00 -8.883256091511776020e-15 5.821274772314206843e-16 0.000000000000000000e+00 -2.105006546333087063e-15 -3.874860393595261132e-15 0.000000000000000000e+00 -7.457217012307255702e-16 -6.503201059202982126e-16 -5.664656043981724098e-16 0.000000000000000000e+00 0.000000000000000000e+00 0.000000000000000000e+00 0.000000000000000000e+00 6.345553041857060792e-15 1.117755761594354526e-14 0.000000000000000000e+00 1.888544526818853802e-15 5.209993292872716148e-15 -7.457217012307255702e-16 -6.503201059202982126e-16 -5.664656043981724098e-16 0.000000000000000000e+00 5.121663382698345137e-15 2.916656962194071085e-14 0.000000000000000000e+00 5.555611373158162148e-15 1.651755987754143862e-14 0.000000000000000000e+00 2.443279253173498548e-15 3.491466729734439157e-15 -7.457217012307255702e-16 -6.503201059202982126e-16 -5.664656043981724098e-16 0.000000000000000000e+00 0.000000000000000000e+00 0.000000000000000000e+00 0.000000000000000000e+00 5.263217151498096636e-15 2.618974441398772683e-14 0.000000000000000000e+00 1.581406650292629339e-15 7.167929142127011830e-15 -7.457217012307255702e-16 -6.503201059202982126e-16 -5.664656043981724098e-16 0.000000000000000000e+00 0.000000000000000000e+00 0.000000000000000000e+00 0.000000000000000000e+00 9.971462805814615645e-15 2.376884178481963363e-14 0.000000000000000000e+00 -9.536125109872932158e-16 3.787748824045676587e-15 3.624122838649580514e-01 -2.298837834568925320e-01 1.448210214015312358e+00 1.039783512339747862e+00 3.864305795495180385e-01 -2.556854231658017174e+00 4.310589829233119619e-01 -5.475618775203752620e+00 5.038537665089012130e+00 1.850807207105876206e-01 -2.409847501357865740e-01 2.682438008319276257e+00 0.000000000000000000e+00 0.000000000000000000e+00 0.000000000000000000e+00 2.002582472124823513e-15 6.026708325698070877e-15 0.000000000000000000e+00 4.138746150052191387e-15 -4.374550318979552409e-15 0.000000000000000000e+00 -4.771996930768514799e-16 -6.496952877942019933e-15 -4.838429344414119842e-16 0.000000000000000000e+00 0.000000000000000000e+00 0.000000000000000000e+00 0.000000000000000000e+00 -4.159385736362053458e-15 2.306165482087801822e-15 0.000000000000000000e+00 -8.271994040605093983e-15 -6.427528130663268807e-15 -4.771996930768514799e-16 -6.496952877942019933e-15 -4.838429344414119842e-16 0.000000000000000000e+00 -1.314457449774032500e-15 9.160063801913754564e-15 0.000000000000000000e+00 7.337717310900124348e-15 4.013587118289310488e-15 0.000000000000000000e+00 3.443297864382816282e-15 -1.735804698705660560e-15 -4.771996930768514799e-16 -6.496952877942019933e-15 -4.838429344414119842e-16 0.000000000000000000e+00 0.000000000000000000e+00 0.000000000000000000e+00 0.000000000000000000e+00 1.781150727112756493e-15 6.832170368949961721e-16 0.000000000000000000e+00 4.445553459284621484e-15 -1.307346743592615059e-14 -4.771996930768514799e-16 -6.496952877942019933e-15 -4.838429344414119842e-16 0.000000000000000000e+00 0.000000000000000000e+00 0.000000000000000000e+00 0.000000000000000000e+00 -2.223902145723485355e-15 -1.803792742681674193e-17 0.000000000000000000e+00 7.276564144607593169e-17 -8.561949355751680647e-15
6.000000000000000000e+02 0.000000000000000000e+00 0.000000000000000000e+00 0.000000000000000000e+00 0.000000000000000000e+00 0.000000000000000000e+00 -2.860044554060982014e-01 -2.879396919828481824e-03 1.937188365243086019e-01 -1.070143725907845428e-01 2.997237611306345917e-01 1.103223659735013962e-01 -4.004305955694309471e-02 9.183966544731560211e-02 -4.357143839780149713e-02 -1.044436047143171148e-01 -1.104768465590821314e-01 -2.081839363476901406e-01 -2.361317451357622665e-01 2.786081349258858753e-01 -5.537056872136431052e-03 -6.081711167191902745e-02 -1.497915942144275314e-01 -1.897782135980690954e-01 -6.566494951156140458e-02 3.045522450959535499e-02 -1.296562760294304451e-01 -2.968172919852511346e-02 -2.121038958093221516e-03 3.350599568276708129e-01 3.068569346425988314e-03 -1.356887939268765046e-02 9.995282383660032688e-02 -1.155797080347475709e-03 -6.242854476925843721e-02 1.865207797713571425e-01 1.605752348996909501e-03 6.772156867539487826e-03 -5.195330153799872924e-02 3.007215079815512421e-03 6.017523320272555321e-03 -5.226926636630438439e-02 1.163177155825577125e-01 -4.549311285282903877e-02 -8.893438140246419099e-01 9.967259830696991729e-01 7.368864145535432009e-01 1.840203395739817394e+00 -6.008833787375286173e-01 -2.098591069419275978e+00 -7.312113516052092255e-01 -1.378027167012554699e+01 -1.741997083519434053e+00 7.444507880726149551e+01 -1.073119334410085557e+00 -5.560870129991609678e-01 -1.584719491036498118e+00 0.000000000000000000e+00 0.000000000000000000e+00 0.000000000000000000e+00 -8.649029018907663739e-15 1.053945728492275472e-15 0.000000000000000000e+00 -2.003932094265065845e-15 -3.499822392613938439e-15 0.000000000000000000e+00 -7.286061286580658813e-16 -8.006468599100417310e-16 -3.352587732916205604e-16 0.000000000000000000e+00 0.000000000000000000e+00 0.000000000000000000e+00 0.000000000000000000e+00 6.092146336876239468e-15 1.010031204512715399e-14 0.000000000000000000e+00 1.985337534021450471e-15 4.947289690503437647e-15 -7.286061286580658813e-16 -8.006468599100417310e-16 -3.352587732916205604e-16 0.000000000000000000e+00 4.488224682912743596e-15 2.643529501150679252e-14 0.000000000000000000e+00 5.177580432164348691e-15 1.525831081633063311e-14 0.000000000000000000e+00 2.428670974212635467e-15 3.196237036041519039e-15 -7.286061286580658813e-16 -8.006468599100417310e-16 -3.352587732916205604e-16 0.000000000000000000e+00 0.000000000000000000e+00 0.000000000000000000e+00 0.000000000000000000e+00 4.656265770215494120e-15 2.453634479055407595e-14 0.000000000000000000e+00 1.517712130434265734e-15 6.748060714100887218e-15 -7.286061286580658813e-16 -8.006468599100417310e-16 -3.352587732916205604e-16 0.000000000000000000e+00 0.000000000000000000e+00 0.000000000000000000e+00 0.000000000000000000e+00 9.700106418397645627e-15 2.271478888579566746e-14 0.000000000000000000e+00 -9.644694818306288084e-16 3.681948838516953347e-15 3.544722457414593575e-01 -2.265234412004097364e-01 1.329989532125674945e+00 8.659399799793854324e-01 4.384834616149324571e-01 -2.297830657831964274e+00 1.148642508817916963e-01 -5.497970854286153397e+00 4.454273958863944394e+00 1.116821466596176898e-01 -2.079840837831491429e-01 2.590924960763016927e+00 0.000000000000000000e+00 0.000000000000000000e+00 0.000000000000000000e+00 1.603590841751084386e-15 5.373151328829264064e-15 0.000000000000000000e+00 3.999627783148966557e-15 -4.444155279959128407e-15 0.000000000000000000e+00 -7.247436370701067538e-16 -6.446714075101011513e-15 -3.614440512766903913e-16 0.000000000000000000e+00 0.000000000000000000e+00 0.000000000000000000e+00 0.000000000000000000e+00 -4.064258845892896383e-15 2.084348385179258713e-15 0.000000000000000000e+00 -8.130228307629997461e-15 -6.450033193983356127e-15 -7.247436370701067538e-16 -6.446714075101011513e-15 -3.614440512766903913e-16 0.000000000000000000e+00 -1.246236013531007914e-15 8.949634748574820394e-15 0.000000000000000000e+00 7.179087400806412413e-15 4.090813770624411034e-15 0.000000000000000000e+00 3.152019135141191555e-15 -1.357537107932037320e-15 -7.247436370701067538e-16 -6.446714075101011513e-15 -3.614440512766903913e-16 0.000000000000000000e+00 0.000000000000000000e+00 0.000000000000000000e+00 0.000000000000000000e+00 1.794084424503202369e-15 7.282843581449795565e-16 0.000000000000000000e+00 4.849331712244725736e-15 -1.263841164979205853e-14 -7.247436370701067538e-16 -6.446714075101011513e-15 -3.614440512766903913e-16 0.000000000000000000e+00 0.000000000000000000e+00 0.000000000000000000e+00 0.000000000000000000e+00 -2.087034764660978589e-15 1.514987797743380247e-16 0.000000000000000000e+00 3.110552951581938681e-17 -8.353455046853093395e-15
